<?xml version="1.0" encoding="UTF-8"?>
<svg xmlns="http://www.w3.org/2000/svg" width="604" height="75" viewBox="0 0 604 75" fill="none">
  <g clip-path="url(#clip0_130_508)">
    <path d="M32.9131 0.0869141H0V36.4723H46.8513C51.1467 36.4723 55.1151 38.7727 57.2519 42.5011L74.4389 72.4707L98.2052 72.6506L115.436 42.6865C117.573 38.9743 121.525 36.6795 125.809 36.674L217.032 36.4778V0.0869141H139.976L122.359 30.6561C120.211 34.3846 116.232 36.674 111.931 36.6631L60.7187 36.4996C56.4397 36.4832 52.4877 34.1884 50.3563 30.4762L32.9131 0.0869141Z" fill="#231F20"></path>
    <path d="M326.558 74.6659L300.135 4.06485C299.924 3.49447 299.408 3.09821 298.808 3.03217L292.047 2.29968L292.365 0.000144625H320.704L320.914 2.22763L314.322 3.00815C313.301 3.12823 312.659 4.16092 312.995 5.13356L331.577 58.0468L332.622 62.856L352.874 5.13957C353.216 4.16692 352.561 3.12823 351.541 3.01415L344.444 2.22162L344.756 -0.00585938H365.776L365.986 2.29367L359.034 3.02616C358.421 3.0922 357.905 3.49447 357.695 4.07086L332.94 72.1502L326.558 74.6599V74.6659ZM364.347 45.5885C363.417 45.5885 362.684 46.375 362.744 47.3057C363.116 53.1836 364.786 57.8247 367.74 61.2289C370.982 64.9574 375.323 66.8247 380.762 66.8247C382.99 66.8247 385.223 66.4104 387.457 65.5698C389.69 64.7353 391.81 63.6846 393.839 62.4297L394.992 64.8373C392.128 67.0708 389.27 68.9501 386.412 70.4871C383.548 72.0241 380.378 73.4471 376.896 74.774C373.762 74.774 370.742 74.2336 367.848 73.1529C364.954 72.0722 362.408 70.4871 360.211 68.3977C358.013 66.3083 356.254 63.7266 354.933 60.6586C353.606 57.5905 352.946 54.0722 352.946 50.0915C352.946 46.1109 353.54 42.5985 354.723 39.5305C355.906 36.4624 357.545 33.7967 359.64 31.5332C361.73 29.2696 364.203 27.4024 367.061 25.9374C369.925 24.4724 373.023 23.3617 376.373 22.5932C379.579 22.5932 382.329 23.0615 384.635 24.0041C386.934 24.9468 388.838 26.2857 390.333 28.0328C391.828 29.774 392.926 31.8334 393.629 34.1989C394.325 36.5705 394.673 39.1522 394.673 41.9381V45.5945H364.347V45.5885ZM382.137 42.6586C383.044 42.6586 383.776 41.9081 383.746 41.0015C383.686 39.3744 383.584 36.9728 383.434 35.778C383.188 33.8687 382.702 32.2296 381.969 30.8547C381.237 29.4738 380.228 28.4171 378.937 27.6726C377.646 26.9341 375.989 26.5618 373.972 26.5618C370.483 26.5618 367.818 28.0388 365.974 30.9928C364.359 33.5685 363.321 36.8467 362.852 40.8273C362.738 41.776 363.489 42.6225 364.443 42.6225L382.149 42.6646L382.137 42.6586ZM416.18 68.5538L416.156 0.000144625H399.315L399.002 2.29968L404.826 3.06218C405.625 3.16425 406.219 3.8427 406.225 4.64724L406.243 9.50448V68.5658C406.243 69.3704 405.649 70.0488 404.856 70.1569L399.345 70.9074L399.657 73.2069H423.084L423.397 70.9074L417.573 70.1509C416.774 70.0488 416.18 69.3644 416.174 68.5598L416.18 68.5538ZM453.201 22.5872C456.551 22.5872 459.631 23.2176 462.459 24.4724C465.281 25.7273 467.706 27.4684 469.723 29.7019C471.747 31.9354 473.314 34.5832 474.431 37.6512C475.541 40.7193 476.106 44.0335 476.106 47.5879C476.106 51.5625 475.511 55.0628 474.329 58.0949C473.14 61.1269 471.435 63.7626 469.201 65.9901C466.974 68.2236 464.272 70.0728 461.096 71.5318C457.92 72.9968 454.389 74.0775 450.481 74.774C447.13 74.774 444.05 74.1435 441.223 72.8887C438.401 71.6339 435.975 69.8927 433.958 67.6592C431.934 65.4317 430.361 62.796 429.251 59.764C428.134 56.7319 427.575 53.4357 427.575 49.8814C427.575 45.9067 428.164 42.3884 429.353 39.3203C430.541 36.2523 432.247 33.6225 434.48 31.4251C436.714 29.2276 439.415 27.3964 442.585 25.9314C445.756 24.4664 449.298 23.3557 453.201 22.5872ZM438.142 47.1616C438.142 50.5118 438.509 53.6459 439.241 56.5758C439.974 59.5058 441 62.0335 442.321 64.1589C443.648 66.2843 445.233 67.9594 447.082 69.1782C448.926 70.4031 450.973 71.0095 453.201 71.0095C455.224 71.0095 457.001 70.5051 458.532 69.4904C460.063 68.4818 461.336 67.0708 462.345 65.2516C463.353 63.4444 464.128 61.265 464.644 58.7193C465.166 56.1736 465.425 53.3697 465.425 50.3017C465.425 46.6092 465.04 43.295 464.278 40.365C463.509 37.4351 462.465 34.9434 461.138 32.8841C459.817 30.8307 458.244 29.2396 456.431 28.1289C454.617 27.0181 452.63 26.4538 450.475 26.4538C448.445 26.4538 446.674 26.9401 445.137 27.9187C443.606 28.8974 442.315 30.2903 441.271 32.1035C440.22 33.9167 439.439 36.0962 438.917 38.6419C438.395 41.1876 438.13 44.0275 438.13 47.1616H438.142ZM478.507 27.1082V25.6432L480.393 23.866H486.018C486.895 23.866 487.609 23.1516 487.609 22.275V15.7486L495.973 9.47446H497.336V22.5872C497.336 23.4638 498.05 24.1783 498.927 24.1783H512.604V27.1082H499.029C498.152 27.1082 497.438 27.8227 497.438 28.6993V61.0668C497.438 63.0181 497.906 64.6092 498.849 65.828C499.792 67.0468 501.269 67.6592 503.292 67.6592C504.967 67.6592 506.444 67.4371 507.741 66.9808C509.032 66.5305 510.443 65.9181 511.974 65.1496L513.12 67.347L499.738 74.774C497.09 74.774 494.976 74.4738 493.409 73.8854C491.842 73.291 490.599 72.4204 489.699 71.2676C488.792 70.1209 488.198 68.7219 487.922 67.0828C487.639 65.4437 487.501 63.5825 487.501 61.4871V28.7053C487.501 27.8287 486.787 27.1142 485.91 27.1142H478.507V27.1082ZM568.231 70.9014L567.919 73.2009H549.307L549.096 70.8053L555.857 70.0428C556.283 69.9948 556.667 69.7786 556.938 69.4424L571.263 51.3223C571.701 50.77 571.725 50.0015 571.329 49.4191L556.607 27.9668C556.355 27.5945 555.959 27.3484 555.515 27.2883L550.357 26.5498L550.675 24.1482H572.428L572.638 26.5498L571.047 26.8921C569.948 27.1322 569.426 28.3931 570.044 29.3357L577.657 40.9774C578.168 42.0942 579.693 42.2323 580.401 41.2356L588.657 29.5758C589.359 28.5852 588.747 27.2043 587.546 27.0602L583.415 26.5498L583.625 24.1482H602.136L602.346 26.5498L595.495 27.3123C595.063 27.3604 594.667 27.5825 594.403 27.9308L581.716 44.4658C581.296 45.0121 581.272 45.7626 581.656 46.333L597.14 69.4604C597.393 69.8387 597.801 70.0968 598.251 70.1569L603.601 70.8954L603.289 73.1949H581.326L581.008 70.8954L582.851 70.5291C583.968 70.307 584.502 69.0221 583.872 68.0735L575.358 55.2129L575.268 55.0268C574.733 53.9641 573.268 53.838 572.566 54.7987L562.972 67.8514C562.245 68.842 562.852 70.2469 564.07 70.391L568.249 70.8954L568.231 70.9014ZM536.626 5.01349H526.629V14.8781H536.626V5.01349ZM537.833 70.1389C537.04 70.0368 536.44 69.3644 536.44 68.5598L536.41 28.6512V24.2083H519.569L519.257 26.5078L525.086 27.2703C525.879 27.3724 526.473 28.0448 526.473 28.8434L526.503 68.5658C526.503 69.3644 525.915 70.0368 525.122 70.1449L519.707 70.8714L519.917 73.2009H543.447L543.657 70.8714L537.833 70.1329V70.1389Z" fill="#231F20"></path>
  </g>
  <defs>
    <clipPath id="clip0_130_508">
      <rect width="603.36" height="74.69" fill="white"></rect>
    </clipPath>
  </defs>
</svg>
